<?xml version="1.0" standalone="no"?>
<!DOCTYPE svg PUBLIC "-//W3C//DTD SVG 20010904//EN"
 "http://www.w3.org/TR/2001/REC-SVG-20010904/DTD/svg10.dtd">
<svg version="1.0" xmlns="http://www.w3.org/2000/svg"
 width="663.000000pt" height="663.000000pt" viewBox="0 0 663.000000 663.000000"
 preserveAspectRatio="xMidYMid meet">
<metadata>
Created by potrace 1.11, written by Peter Selinger 2001-2013
</metadata>
<g transform="translate(0.000000,663.000000) scale(0.100000,-0.100000)"
fill="#000000" stroke="none">
<path d="M3350 6586 c0 -1 24 -20 53 -41 221 -167 545 -463 782 -717 305 -326
565 -661 849 -1093 141 -215 208 -299 334 -422 264 -258 600 -450 1050 -599
90 -29 168 -54 173 -54 5 0 9 18 9 39 l0 39 -142 48 c-195 64 -359 133 -508
211 -113 59 -299 174 -332 205 -7 7 -31 26 -53 43 -65 48 -223 204 -288 285
-33 41 -116 160 -185 265 -69 104 -154 230 -190 280 -75 103 -273 368 -282
375 -3 3 -37 43 -75 90 -225 276 -576 637 -826 850 -35 30 -66 57 -69 60 -3 3
-40 34 -84 70 -78 63 -79 63 -147 66 -38 1 -69 2 -69 0z"/>
<path d="M2522 6497 l-43 -10 181 -89 c364 -177 688 -391 1040 -687 126 -105
531 -504 626 -616 29 -33 71 -82 95 -110 152 -178 335 -424 527 -711 78 -116
174 -248 215 -295 290 -332 726 -572 1325 -729 101 -27 132 -32 133 -23 0 5 1
22 2 40 l2 31 -125 33 c-255 66 -518 165 -709 266 -191 101 -332 202 -470 336
-113 110 -165 177 -324 414 -239 355 -465 646 -701 903 -93 100 -350 354 -426
420 -41 36 -81 71 -88 78 -42 38 -233 191 -332 264 -213 158 -481 323 -712
439 -121 60 -140 65 -216 46z"/>
<path d="M4145 6456 c15 -19 30 -36 34 -38 5 -2 179 -198 265 -298 197 -231
475 -609 685 -935 126 -195 192 -277 330 -415 188 -188 379 -324 636 -455 118
-60 344 -157 397 -170 27 -7 27 -7 17 32 -6 21 -16 43 -22 49 -7 6 -54 28
-105 48 -267 105 -554 273 -742 435 -177 152 -280 274 -446 527 -157 238 -273
404 -397 569 -92 121 -300 380 -357 445 -17 19 -53 60 -80 90 -93 107 -98 111
-168 131 -37 10 -68 19 -70 19 -2 0 9 -15 23 -34z"/>
<path d="M4893 6117 c46 -62 145 -207 221 -322 218 -330 220 -334 312 -445
153 -184 367 -367 591 -506 99 -62 294 -166 300 -160 2 2 -9 27 -24 57 -25 48
-37 58 -122 106 -213 120 -392 254 -552 413 -134 133 -192 210 -423 559 -112
168 -212 314 -222 323 -19 16 -147 88 -157 88 -4 0 31 -51 76 -113z"/>
<path d="M1551 6088 c-66 -37 -71 -48 -24 -49 21 0 45 -2 53 -3 8 -2 44 -6 80
-10 36 -3 76 -8 90 -10 14 -3 48 -7 75 -11 60 -7 212 -39 315 -66 598 -156
1171 -472 1700 -938 85 -74 388 -375 465 -461 150 -167 332 -401 483 -620 66
-96 146 -212 177 -257 85 -123 205 -247 355 -367 46 -36 203 -133 292 -180
189 -100 467 -200 738 -265 255 -61 240 -60 240 -6 0 35 -3 37 -70 50 -70 13
-307 75 -400 103 -452 141 -793 348 -1021 622 -26 30 -96 130 -158 222 -92
139 -340 481 -360 498 -4 3 -38 43 -76 90 -69 84 -93 111 -210 239 -165 179
-421 418 -590 551 -39 30 -72 57 -75 60 -20 22 -226 164 -400 276 -114 72
-500 274 -526 274 -3 0 -20 7 -37 15 -145 66 -523 185 -669 210 -18 3 -69 12
-113 20 -44 9 -126 21 -183 28 l-102 14 -49 -29z"/>
<path d="M1528 5365 c-2 -1 -48 -5 -103 -9 -109 -7 -250 -27 -360 -52 -38 -9
-80 -18 -91 -20 -71 -13 -400 -123 -409 -136 -12 -18 -63 -96 -69 -105 -8 -15
-9 -15 124 40 159 65 380 131 510 153 25 4 47 8 50 9 3 1 30 5 60 9 30 5 64
10 74 12 94 17 414 23 566 11 315 -27 638 -110 955 -245 139 -59 316 -148 421
-212 35 -22 67 -40 70 -40 2 0 10 -5 17 -10 7 -6 57 -41 112 -77 96 -63 297
-213 360 -268 175 -153 238 -212 350 -327 153 -157 185 -192 288 -318 131
-159 214 -270 347 -465 112 -164 143 -205 216 -281 273 -282 686 -476 1291
-604 183 -38 189 -38 197 1 8 41 4 46 -51 53 -83 12 -386 84 -507 121 -388
117 -692 292 -898 514 -38 42 -114 142 -169 223 -172 255 -382 525 -536 690
-242 259 -553 533 -768 678 -27 19 -51 37 -53 42 -2 4 -8 8 -13 8 -6 0 -36 18
-67 39 -148 100 -402 236 -587 313 -307 129 -617 209 -945 244 -57 6 -377 14
-382 9z"/>
<path d="M1838 4605 c-2 -1 -37 -5 -78 -9 -41 -3 -84 -8 -95 -10 -11 -2 -42
-7 -70 -10 -81 -12 -253 -54 -355 -87 -405 -133 -757 -352 -1093 -679 -125
-122 -128 -126 -133 -175 -3 -27 -7 -56 -9 -62 -9 -27 13 -8 134 115 253 257
469 420 746 563 177 92 418 183 565 215 90 19 258 45 330 51 157 13 417 8 530
-11 14 -2 46 -7 71 -10 292 -40 675 -179 984 -357 196 -112 416 -269 575 -408
88 -77 336 -323 405 -401 124 -142 289 -356 385 -500 119 -179 238 -302 395
-409 235 -160 512 -270 900 -357 11 -3 52 -11 90 -19 39 -8 79 -16 90 -19 11
-2 40 -7 65 -11 25 -3 52 -8 61 -11 10 -3 21 8 33 32 9 20 16 38 14 39 -2 2
-16 6 -33 8 -16 3 -55 10 -85 16 -271 48 -535 120 -727 197 -336 136 -550 305
-743 589 -85 125 -215 300 -270 364 -11 13 -37 44 -58 69 -55 67 -134 153
-247 266 -576 579 -1277 939 -1970 1012 -57 6 -402 13 -407 9z"/>
<path d="M2180 3847 c-3 -3 -41 -8 -85 -11 -286 -25 -681 -171 -952 -354 -377
-254 -738 -665 -930 -1061 l-55 -113 17 -59 c10 -32 21 -56 26 -54 4 3 13 22
20 43 36 111 163 341 271 491 264 365 590 651 946 830 157 79 434 168 577 185
28 4 82 10 120 15 70 9 398 7 445 -3 14 -2 43 -7 65 -11 144 -20 249 -46 400
-97 606 -203 1154 -641 1602 -1280 176 -253 344 -391 624 -515 192 -84 498
-173 719 -209 19 -3 37 -7 40 -9 3 -2 31 -6 61 -10 56 -7 56 -6 77 29 l21 35
-27 5 c-15 3 -42 8 -59 11 -28 4 -201 38 -255 50 -84 18 -306 82 -395 114
-347 123 -560 279 -735 537 -208 306 -458 581 -733 805 -409 334 -870 547
-1330 614 -22 4 -51 9 -65 11 -33 7 -404 16 -410 11z"/>
<path d="M2617 3094 c-1 -1 -42 -4 -92 -8 -119 -9 -141 -12 -265 -43 -457
-112 -867 -415 -1167 -863 -142 -213 -237 -469 -268 -726 -4 -33 -9 -68 -11
-79 -2 -10 -4 -63 -5 -117 l-1 -97 41 -43 41 -43 1 130 c0 72 2 137 4 145 1 8
5 45 9 81 23 248 124 515 283 742 61 87 63 90 148 191 206 245 460 430 740
541 83 33 270 81 346 90 30 3 68 8 84 11 17 3 93 6 170 6 695 0 1411 -423
1904 -1126 148 -212 327 -347 608 -460 92 -37 268 -95 333 -111 8 -2 74 -17
145 -34 72 -17 147 -35 168 -40 34 -8 39 -6 62 21 14 16 25 33 25 37 0 5 -28
14 -62 20 -202 39 -493 121 -641 180 -267 107 -425 228 -582 447 -120 167
-196 256 -349 409 -153 153 -240 227 -386 327 -337 233 -699 372 -1053 404
-64 5 -226 12 -230 8z"/>
<path d="M2988 2345 c-2 -1 -44 -5 -94 -8 -50 -4 -97 -8 -105 -11 -8 -3 -27
-7 -44 -9 -135 -20 -351 -109 -494 -205 -157 -106 -279 -226 -398 -391 -227
-313 -274 -676 -152 -1153 31 -124 42 -144 89 -168 23 -12 43 -20 45 -18 2 2
-14 63 -35 135 -22 73 -42 152 -45 175 -4 23 -8 45 -10 48 -2 3 -9 50 -15 105
-20 158 -15 307 15 454 2 14 14 54 26 90 95 287 363 587 659 736 133 67 251
103 420 129 45 7 263 8 315 1 289 -38 536 -134 795 -308 163 -109 357 -289
478 -443 192 -243 232 -282 389 -377 138 -82 329 -159 585 -235 l97 -29 33 28
c18 15 31 29 28 32 -3 3 -86 31 -185 62 -475 150 -631 244 -828 500 -175 226
-414 448 -622 575 -267 164 -547 260 -805 276 -47 3 -97 7 -112 9 -15 1 -28 2
-30 0z"/>
<path d="M3285 1593 c-204 -17 -386 -84 -527 -195 -312 -245 -375 -540 -204
-964 35 -89 149 -328 162 -343 5 -5 88 -20 92 -16 2 2 -32 75 -76 163 -98 197
-150 333 -178 462 -12 61 -11 227 2 279 29 109 94 212 192 303 252 233 599
292 974 167 283 -94 496 -249 770 -560 98 -111 220 -199 452 -324 l90 -48 35
19 c20 10 35 23 34 28 -1 5 -43 31 -95 58 -142 76 -255 146 -338 209 -68 52
-98 82 -201 204 -180 213 -420 383 -667 474 -168 62 -375 95 -517 84z"/>
<path d="M3526 834 c-150 -33 -256 -125 -256 -223 0 -66 48 -149 186 -325 35
-43 80 -114 101 -157 35 -71 41 -78 68 -78 17 0 36 3 42 7 23 14 -57 159 -170
308 -165 218 -174 247 -108 313 58 58 134 83 251 84 119 1 170 -7 290 -45 245
-77 444 -220 546 -390 20 -35 38 -64 40 -66 1 -2 19 4 39 12 l37 16 -32 57
c-100 179 -276 320 -518 417 -183 73 -378 100 -516 70z"/>
</g>
</svg>
